<svg width="155" height="46" viewBox="0 0 155 46" fill="none" xmlns="http://www.w3.org/2000/svg">
<g filter="url(#filter0_d_0_60)">
<rect opacity="0.2" x="3.54077" y="7.88965" width="42" height="32" rx="8.448" transform="rotate(-10 3.54077 7.88965)" fill="#14B45C"/>
<path fill-rule="evenodd" clip-rule="evenodd" d="M6.87195 9.36808C6 11.0794 6 13.3196 6 17.8V22.2C6 26.6804 6 28.9206 6.87195 30.6319C7.63893 32.1372 8.86278 33.3611 10.3681 34.1281C12.0794 35 14.3196 35 18.8 35H33.2C37.6804 35 39.9206 35 41.6319 34.1281C43.1372 33.3611 44.3611 32.1372 45.1281 30.6319C46 28.9206 46 26.6804 46 22.2V17.8C46 13.3196 46 11.0794 45.1281 9.36808C44.3611 7.86278 43.1372 6.63893 41.6319 5.87195C39.9206 5 37.6804 5 33.2 5H18.8C14.3196 5 12.0794 5 10.3681 5.87195C8.86278 6.63893 7.63893 7.86278 6.87195 9.36808ZM30.6 19C30.2582 19 29.9541 19.2172 29.8432 19.5405L28.2 24.3333L24.1568 12.5405C23.9097 11.8198 22.8903 11.8198 22.6432 12.5405L20.4286 19H17.8C17.3582 19 17 19.3582 17 19.8C17 20.2418 17.3582 20.6 17.8 20.6H21C21.3418 20.6 21.6459 20.3828 21.7568 20.0595L23.4 15.2667L27.4432 27.0595C27.6903 27.7802 28.7097 27.7802 28.9568 27.0595L31.1714 20.6H33.8C34.2418 20.6 34.6 20.2418 34.6 19.8C34.6 19.3582 34.2418 19 33.8 19H30.6Z" fill="#14B45C"/>
<path fill-rule="evenodd" clip-rule="evenodd" d="M62.05 28.302C59.938 28.302 58.574 27.158 57.694 25.882V28.06H56V12H57.694V18.974C58.618 17.61 59.96 16.444 62.05 16.444C64.778 16.444 67.484 18.6 67.484 22.34V22.384C67.484 26.102 64.8 28.302 62.05 28.302ZM61.742 26.784C63.942 26.784 65.746 25.156 65.746 22.406V22.362C65.746 19.678 63.898 17.962 61.742 17.962C59.63 17.962 57.628 19.744 57.628 22.34V22.384C57.628 25.024 59.63 26.784 61.742 26.784ZM71.62 23.066C71.862 25.464 73.622 26.85 75.624 26.85C77.186 26.85 78.286 26.212 79.21 25.244L80.266 26.19C79.122 27.466 77.736 28.324 75.58 28.324C72.456 28.324 69.904 25.926 69.904 22.384C69.904 19.084 72.214 16.444 75.36 16.444C78.726 16.444 80.662 19.128 80.662 22.472C80.662 22.626 80.662 22.802 80.64 23.066H71.62ZM71.62 21.702H78.946C78.748 19.634 77.56 17.874 75.316 17.874C73.358 17.874 71.862 19.502 71.62 21.702ZM84.644 23.066C84.886 25.464 86.646 26.85 88.648 26.85C90.21 26.85 91.31 26.212 92.234 25.244L93.29 26.19C92.146 27.466 90.76 28.324 88.604 28.324C85.48 28.324 82.928 25.926 82.928 22.384C82.928 19.084 85.238 16.444 88.384 16.444C91.75 16.444 93.686 19.128 93.686 22.472C93.686 22.626 93.686 22.802 93.664 23.066H84.644ZM84.644 21.702H91.97C91.772 19.634 90.584 17.874 88.34 17.874C86.382 17.874 84.886 19.502 84.644 21.702ZM96.656 31.58V16.686H98.35V18.974C99.274 17.61 100.616 16.444 102.706 16.444C105.434 16.444 108.14 18.6 108.14 22.34V22.384C108.14 26.102 105.456 28.302 102.706 28.302C100.594 28.302 99.23 27.158 98.35 25.882V31.58H96.656ZM102.398 26.784C104.598 26.784 106.402 25.156 106.402 22.406V22.362C106.402 19.678 104.554 17.962 102.398 17.962C100.286 17.962 98.284 19.744 98.284 22.34V22.384C98.284 25.024 100.286 26.784 102.398 26.784ZM117.886 28.28C116.104 28.28 115.004 27.466 114.212 26.52V28.06H110.868V12H114.212V17.962C115.026 16.862 116.148 16.048 117.886 16.048C120.636 16.048 123.254 18.204 123.254 22.142V22.186C123.254 26.124 120.68 28.28 117.886 28.28ZM117.028 25.442C118.59 25.442 119.91 24.166 119.91 22.186V22.142C119.91 20.184 118.59 18.886 117.028 18.886C115.466 18.886 114.168 20.184 114.168 22.142V22.186C114.168 24.144 115.466 25.442 117.028 25.442ZM125.324 28.06V24.54H128.888V28.06H125.324ZM131.814 14.97V12H135.334V14.97H131.814ZM131.902 28.06V16.268H135.246V28.06H131.902ZM144.178 28.324C140.526 28.324 137.82 25.618 137.82 22.23V22.186C137.82 18.798 140.548 16.048 144.222 16.048C147.874 16.048 150.58 18.754 150.58 22.142V22.186C150.58 25.574 147.852 28.324 144.178 28.324ZM144.222 25.442C146.136 25.442 147.28 23.968 147.28 22.23V22.186C147.28 20.448 146.026 18.93 144.178 18.93C142.264 18.93 141.12 20.404 141.12 22.142V22.186C141.12 23.924 142.374 25.442 144.222 25.442Z" fill="white"/>
</g>
<defs>
<filter id="filter0_d_0_60" x="0.968018" y="2.02393" width="153.612" height="43.9521" filterUnits="userSpaceOnUse" color-interpolation-filters="sRGB">
<feFlood flood-opacity="0" result="BackgroundImageFix"/>
<feColorMatrix in="SourceAlpha" type="matrix" values="0 0 0 0 0 0 0 0 0 0 0 0 0 0 0 0 0 0 127 0" result="hardAlpha"/>
<feOffset dy="4"/>
<feGaussianBlur stdDeviation="2"/>
<feComposite in2="hardAlpha" operator="out"/>
<feColorMatrix type="matrix" values="0 0 0 0 0 0 0 0 0 0 0 0 0 0 0 0 0 0 0.25 0"/>
<feBlend mode="normal" in2="BackgroundImageFix" result="effect1_dropShadow_0_60"/>
<feBlend mode="normal" in="SourceGraphic" in2="effect1_dropShadow_0_60" result="shape"/>
</filter>
</defs>
</svg>
